<svg xmlns="http://www.w3.org/2000/svg" xmlns:xlink="http://www.w3.org/1999/xlink" width="40" zoomAndPan="magnify" viewBox="0 0 30 30.000001" height="40" preserveAspectRatio="xMidYMid meet" version="1.0"><defs><g/><clipPath id="b95c040f40"><path d="M 0.484375 0 L 29.515625 0 L 29.515625 29.03125 L 0.484375 29.03125 Z M 0.484375 0 " clip-rule="nonzero"/></clipPath><clipPath id="c7cf1d67e6"><path d="M 8 1.558594 L 22 1.558594 L 22 16 L 8 16 Z M 8 1.558594 " clip-rule="nonzero"/></clipPath><clipPath id="ccc206d216"><path d="M 2.042969 7 L 8 7 L 8 23 L 2.042969 23 Z M 2.042969 7 " clip-rule="nonzero"/></clipPath><clipPath id="c7991590e3"><path d="M 6 7 L 28.171875 7 L 28.171875 27.691406 L 6 27.691406 Z M 6 7 " clip-rule="nonzero"/></clipPath></defs><g clip-path="url(#b95c040f40)"><path fill="#ffffff" d="M 0.484375 0 L 29.515625 0 L 29.515625 29.03125 L 0.484375 29.03125 Z M 0.484375 0 " fill-opacity="1" fill-rule="nonzero"/><path fill="#7fc241" d="M 0.484375 0 L 29.515625 0 L 29.515625 29.03125 L 0.484375 29.03125 Z M 0.484375 0 " fill-opacity="1" fill-rule="nonzero"/></g><g clip-path="url(#c7cf1d67e6)"><path fill="#000000" d="M 15.109375 15.246094 C 13.28125 15.246094 11.5625 14.535156 10.269531 13.242188 C 8.976562 11.949219 8.265625 10.230469 8.265625 8.402344 C 8.265625 6.574219 8.976562 4.855469 10.269531 3.566406 C 11.5625 2.273438 13.28125 1.558594 15.109375 1.558594 C 16.9375 1.558594 18.65625 2.273438 19.949219 3.566406 C 21.242188 4.855469 21.953125 6.574219 21.953125 8.402344 C 21.953125 10.230469 21.242188 11.949219 19.949219 13.242188 C 18.65625 14.535156 16.9375 15.246094 15.109375 15.246094 Z M 15.109375 2.804688 C 12.023438 2.804688 9.511719 5.316406 9.511719 8.402344 C 9.511719 11.492188 12.023438 14.003906 15.109375 14.003906 C 18.195312 14.003906 20.707031 11.492188 20.707031 8.402344 C 20.707031 5.316406 18.195312 2.804688 15.109375 2.804688 Z M 15.109375 2.804688 " fill-opacity="1" fill-rule="nonzero"/></g><path fill="#000000" d="M 15.730469 11.515625 C 15.570312 11.515625 15.414062 11.453125 15.292969 11.332031 C 15.046875 11.089844 15.046875 10.695312 15.292969 10.453125 L 17.78125 7.964844 C 18.023438 7.722656 18.417969 7.722656 18.660156 7.964844 C 18.902344 8.207031 18.902344 8.601562 18.660156 8.84375 L 16.171875 11.332031 C 16.050781 11.453125 15.890625 11.515625 15.730469 11.515625 Z M 15.730469 11.515625 " fill-opacity="1" fill-rule="nonzero"/><path fill="#000000" d="M 18.21875 9.027344 L 12 9.027344 C 11.65625 9.027344 11.375 8.746094 11.375 8.402344 C 11.375 8.058594 11.65625 7.78125 12 7.78125 L 16.71875 7.78125 L 15.292969 6.355469 C 15.046875 6.113281 15.046875 5.71875 15.292969 5.476562 C 15.535156 5.234375 15.929688 5.234375 16.171875 5.476562 L 18.660156 7.964844 C 18.835938 8.140625 18.890625 8.410156 18.792969 8.640625 C 18.699219 8.875 18.472656 9.027344 18.21875 9.027344 Z M 18.21875 9.027344 " fill-opacity="1" fill-rule="nonzero"/><g clip-path="url(#ccc206d216)"><path fill="#000000" d="M 7.019531 22.710938 L 5.15625 22.710938 C 3.441406 22.710938 2.042969 21.316406 2.042969 19.601562 L 2.042969 10.890625 C 2.042969 9.175781 3.441406 7.78125 5.15625 7.78125 L 6.398438 7.78125 C 6.742188 7.78125 7.019531 8.058594 7.019531 8.402344 C 7.019531 8.746094 6.742188 9.027344 6.398438 9.027344 L 5.15625 9.027344 C 4.125 9.027344 3.289062 9.863281 3.289062 10.890625 L 3.289062 19.601562 C 3.289062 20.632812 4.125 21.46875 5.15625 21.46875 L 7.019531 21.46875 C 7.363281 21.46875 7.644531 21.746094 7.644531 22.089844 C 7.644531 22.433594 7.363281 22.710938 7.019531 22.710938 Z M 7.019531 22.710938 " fill-opacity="1" fill-rule="nonzero"/></g><g clip-path="url(#c7991590e3)"><path fill="#000000" d="M 7.019531 27.691406 C 6.941406 27.691406 6.859375 27.675781 6.785156 27.640625 C 6.550781 27.546875 6.398438 27.320312 6.398438 27.066406 L 6.398438 22.089844 C 6.398438 21.746094 6.675781 21.46875 7.019531 21.46875 C 7.363281 21.46875 7.644531 21.746094 7.644531 22.089844 L 7.644531 25.566406 L 11.558594 21.652344 C 11.675781 21.535156 11.832031 21.46875 12 21.46875 L 25.0625 21.46875 C 26.09375 21.46875 26.929688 20.632812 26.929688 19.601562 L 26.929688 10.890625 C 26.929688 9.863281 26.09375 9.027344 25.0625 9.027344 L 23.820312 9.027344 C 23.476562 9.027344 23.195312 8.746094 23.195312 8.402344 C 23.195312 8.058594 23.476562 7.78125 23.820312 7.78125 L 25.0625 7.78125 C 26.777344 7.78125 28.171875 9.175781 28.171875 10.890625 L 28.171875 19.601562 C 28.171875 21.316406 26.777344 22.710938 25.0625 22.710938 L 12.257812 22.710938 L 7.460938 27.507812 C 7.34375 27.625 7.183594 27.691406 7.019531 27.691406 Z M 7.019531 27.691406 " fill-opacity="1" fill-rule="nonzero"/></g><g fill="#000000" fill-opacity="1"><g transform="translate(6.547383, 18.967742)"><g><path d="M 1.453125 -2.71875 C 1.640625 -2.71875 1.804688 -2.679688 1.953125 -2.609375 C 2.097656 -2.535156 2.21875 -2.4375 2.3125 -2.3125 C 2.414062 -2.1875 2.488281 -2.039062 2.53125 -1.875 C 2.582031 -1.71875 2.609375 -1.546875 2.609375 -1.359375 C 2.609375 -1.109375 2.5625 -0.878906 2.46875 -0.671875 C 2.382812 -0.460938 2.253906 -0.296875 2.078125 -0.171875 C 1.910156 -0.0546875 1.703125 0 1.453125 0 L 0.53125 0 C 0.457031 0 0.398438 -0.0195312 0.359375 -0.0625 C 0.316406 -0.113281 0.296875 -0.171875 0.296875 -0.234375 L 0.296875 -2.46875 C 0.296875 -2.539062 0.316406 -2.597656 0.359375 -2.640625 C 0.398438 -2.691406 0.457031 -2.71875 0.53125 -2.71875 Z M 1.421875 -0.453125 C 1.578125 -0.453125 1.707031 -0.492188 1.8125 -0.578125 C 1.914062 -0.660156 1.988281 -0.769531 2.03125 -0.90625 C 2.082031 -1.039062 2.109375 -1.191406 2.109375 -1.359375 C 2.109375 -1.472656 2.09375 -1.585938 2.0625 -1.703125 C 2.039062 -1.816406 2 -1.914062 1.9375 -2 C 1.882812 -2.082031 1.8125 -2.144531 1.71875 -2.1875 C 1.632812 -2.238281 1.535156 -2.265625 1.421875 -2.265625 L 0.734375 -2.265625 L 0.78125 -2.296875 L 0.78125 -0.40625 L 0.75 -0.453125 Z M 1.421875 -0.453125 "/></g></g></g><g fill="#000000" fill-opacity="1"><g transform="translate(9.34611, 18.967742)"><g><path d="M 1.234375 0.03125 C 1.015625 0.03125 0.820312 -0.0078125 0.65625 -0.09375 C 0.5 -0.1875 0.375 -0.3125 0.28125 -0.46875 C 0.195312 -0.625 0.15625 -0.800781 0.15625 -1 C 0.15625 -1.238281 0.203125 -1.4375 0.296875 -1.59375 C 0.390625 -1.757812 0.507812 -1.882812 0.65625 -1.96875 C 0.8125 -2.0625 0.976562 -2.109375 1.15625 -2.109375 C 1.28125 -2.109375 1.398438 -2.082031 1.515625 -2.03125 C 1.640625 -1.976562 1.742188 -1.90625 1.828125 -1.8125 C 1.921875 -1.71875 1.992188 -1.609375 2.046875 -1.484375 C 2.097656 -1.359375 2.125 -1.222656 2.125 -1.078125 C 2.125 -1.015625 2.097656 -0.960938 2.046875 -0.921875 C 2.003906 -0.890625 1.953125 -0.875 1.890625 -0.875 L 0.421875 -0.875 L 0.296875 -1.265625 L 1.71875 -1.265625 L 1.640625 -1.1875 L 1.640625 -1.296875 C 1.628906 -1.367188 1.597656 -1.429688 1.546875 -1.484375 C 1.503906 -1.546875 1.445312 -1.59375 1.375 -1.625 C 1.300781 -1.664062 1.226562 -1.6875 1.15625 -1.6875 C 1.070312 -1.6875 0.992188 -1.675781 0.921875 -1.65625 C 0.859375 -1.632812 0.800781 -1.597656 0.75 -1.546875 C 0.707031 -1.492188 0.671875 -1.425781 0.640625 -1.34375 C 0.609375 -1.269531 0.59375 -1.164062 0.59375 -1.03125 C 0.59375 -0.894531 0.625 -0.773438 0.6875 -0.671875 C 0.75 -0.578125 0.820312 -0.503906 0.90625 -0.453125 C 1 -0.410156 1.097656 -0.390625 1.203125 -0.390625 C 1.296875 -0.390625 1.367188 -0.394531 1.421875 -0.40625 C 1.484375 -0.425781 1.53125 -0.445312 1.5625 -0.46875 C 1.601562 -0.488281 1.640625 -0.503906 1.671875 -0.515625 C 1.710938 -0.546875 1.753906 -0.5625 1.796875 -0.5625 C 1.859375 -0.5625 1.90625 -0.539062 1.9375 -0.5 C 1.976562 -0.457031 2 -0.410156 2 -0.359375 C 2 -0.296875 1.960938 -0.234375 1.890625 -0.171875 C 1.816406 -0.117188 1.71875 -0.0703125 1.59375 -0.03125 C 1.476562 0.0078125 1.359375 0.03125 1.234375 0.03125 Z M 1.234375 0.03125 "/></g></g></g><g fill="#000000" fill-opacity="1"><g transform="translate(11.629995, 18.967742)"><g><path d="M 0.75 -0.234375 C 0.75 -0.171875 0.726562 -0.113281 0.6875 -0.0625 C 0.644531 -0.0195312 0.585938 0 0.515625 0 C 0.453125 0 0.398438 -0.0195312 0.359375 -0.0625 C 0.316406 -0.113281 0.296875 -0.171875 0.296875 -0.234375 L 0.296875 -2.625 C 0.296875 -2.695312 0.316406 -2.753906 0.359375 -2.796875 C 0.398438 -2.847656 0.457031 -2.875 0.53125 -2.875 C 0.59375 -2.875 0.644531 -2.847656 0.6875 -2.796875 C 0.726562 -2.753906 0.75 -2.695312 0.75 -2.625 Z M 0.75 -0.234375 "/></g></g></g><g fill="#000000" fill-opacity="1"><g transform="translate(12.636454, 18.967742)"><g><path d="M 2.265625 -1.03125 C 2.265625 -0.820312 2.21875 -0.632812 2.125 -0.46875 C 2.03125 -0.3125 1.898438 -0.1875 1.734375 -0.09375 C 1.578125 -0.0078125 1.398438 0.03125 1.203125 0.03125 C 1.015625 0.03125 0.835938 -0.0078125 0.671875 -0.09375 C 0.515625 -0.1875 0.390625 -0.3125 0.296875 -0.46875 C 0.203125 -0.632812 0.15625 -0.820312 0.15625 -1.03125 C 0.15625 -1.25 0.203125 -1.4375 0.296875 -1.59375 C 0.390625 -1.757812 0.515625 -1.882812 0.671875 -1.96875 C 0.835938 -2.0625 1.015625 -2.109375 1.203125 -2.109375 C 1.398438 -2.109375 1.578125 -2.0625 1.734375 -1.96875 C 1.898438 -1.882812 2.03125 -1.757812 2.125 -1.59375 C 2.21875 -1.4375 2.265625 -1.25 2.265625 -1.03125 Z M 1.796875 -1.03125 C 1.796875 -1.164062 1.769531 -1.28125 1.71875 -1.375 C 1.664062 -1.46875 1.59375 -1.539062 1.5 -1.59375 C 1.414062 -1.65625 1.316406 -1.6875 1.203125 -1.6875 C 1.097656 -1.6875 1 -1.65625 0.90625 -1.59375 C 0.820312 -1.539062 0.753906 -1.46875 0.703125 -1.375 C 0.648438 -1.28125 0.625 -1.164062 0.625 -1.03125 C 0.625 -0.90625 0.648438 -0.789062 0.703125 -0.6875 C 0.753906 -0.59375 0.820312 -0.519531 0.90625 -0.46875 C 1 -0.414062 1.097656 -0.390625 1.203125 -0.390625 C 1.316406 -0.390625 1.414062 -0.414062 1.5 -0.46875 C 1.59375 -0.519531 1.664062 -0.59375 1.71875 -0.6875 C 1.769531 -0.789062 1.796875 -0.90625 1.796875 -1.03125 Z M 1.796875 -1.03125 "/></g></g></g><g fill="#000000" fill-opacity="1"><g transform="translate(15.051953, 18.967742)"><g><path d="M 0.6875 -0.234375 C 0.6875 -0.171875 0.664062 -0.113281 0.625 -0.0625 C 0.582031 -0.0195312 0.523438 0 0.453125 0 C 0.390625 0 0.332031 -0.0195312 0.28125 -0.0625 C 0.238281 -0.113281 0.21875 -0.171875 0.21875 -0.234375 L 0.21875 -1.84375 C 0.21875 -1.90625 0.238281 -1.957031 0.28125 -2 C 0.332031 -2.050781 0.390625 -2.078125 0.453125 -2.078125 C 0.523438 -2.078125 0.582031 -2.050781 0.625 -2 C 0.664062 -1.957031 0.6875 -1.90625 0.6875 -1.84375 Z M 0.453125 -2.328125 C 0.359375 -2.328125 0.289062 -2.335938 0.25 -2.359375 C 0.21875 -2.390625 0.203125 -2.441406 0.203125 -2.515625 L 0.203125 -2.59375 C 0.203125 -2.664062 0.222656 -2.710938 0.265625 -2.734375 C 0.304688 -2.765625 0.367188 -2.78125 0.453125 -2.78125 C 0.546875 -2.78125 0.609375 -2.765625 0.640625 -2.734375 C 0.679688 -2.710938 0.703125 -2.664062 0.703125 -2.59375 L 0.703125 -2.515625 C 0.703125 -2.441406 0.679688 -2.390625 0.640625 -2.359375 C 0.597656 -2.335938 0.535156 -2.328125 0.453125 -2.328125 Z M 0.453125 -2.328125 "/></g></g></g><g fill="#000000" fill-opacity="1"><g transform="translate(15.965506, 18.967742)"><g><path d="M 0.53125 -2.71875 C 0.59375 -2.71875 0.648438 -2.691406 0.703125 -2.640625 C 0.753906 -2.597656 0.78125 -2.539062 0.78125 -2.46875 L 0.78125 -0.234375 C 0.78125 -0.171875 0.753906 -0.113281 0.703125 -0.0625 C 0.648438 -0.0195312 0.59375 0 0.53125 0 C 0.457031 0 0.398438 -0.0195312 0.359375 -0.0625 C 0.316406 -0.113281 0.296875 -0.171875 0.296875 -0.234375 L 0.296875 -2.46875 C 0.296875 -2.539062 0.316406 -2.597656 0.359375 -2.640625 C 0.410156 -2.691406 0.46875 -2.71875 0.53125 -2.71875 Z M 2.25 -2.71875 C 2.320312 -2.71875 2.378906 -2.691406 2.421875 -2.640625 C 2.472656 -2.597656 2.5 -2.539062 2.5 -2.46875 L 2.5 -0.234375 C 2.5 -0.171875 2.472656 -0.113281 2.421875 -0.0625 C 2.378906 -0.0195312 2.320312 0 2.25 0 C 2.1875 0 2.128906 -0.0195312 2.078125 -0.0625 C 2.035156 -0.113281 2.015625 -0.171875 2.015625 -0.234375 L 2.015625 -2.46875 C 2.015625 -2.539062 2.035156 -2.597656 2.078125 -2.640625 C 2.128906 -2.691406 2.1875 -2.71875 2.25 -2.71875 Z M 0.53125 -1.578125 L 2.25 -1.578125 L 2.25 -1.140625 L 0.53125 -1.140625 Z M 0.53125 -1.578125 "/></g></g></g><g fill="#000000" fill-opacity="1"><g transform="translate(18.748752, 18.967742)"><g><path d="M 1.796875 -2.078125 C 1.859375 -2.078125 1.910156 -2.050781 1.953125 -2 C 1.992188 -1.957031 2.015625 -1.90625 2.015625 -1.84375 L 2.015625 -0.859375 C 2.015625 -0.578125 1.9375 -0.359375 1.78125 -0.203125 C 1.632812 -0.046875 1.421875 0.03125 1.140625 0.03125 C 0.847656 0.03125 0.625 -0.046875 0.46875 -0.203125 C 0.320312 -0.359375 0.25 -0.578125 0.25 -0.859375 L 0.25 -1.84375 C 0.25 -1.90625 0.269531 -1.957031 0.3125 -2 C 0.363281 -2.050781 0.421875 -2.078125 0.484375 -2.078125 C 0.546875 -2.078125 0.597656 -2.050781 0.640625 -2 C 0.691406 -1.957031 0.71875 -1.90625 0.71875 -1.84375 L 0.71875 -0.859375 C 0.71875 -0.691406 0.75 -0.570312 0.8125 -0.5 C 0.882812 -0.425781 0.992188 -0.390625 1.140625 -0.390625 C 1.273438 -0.390625 1.378906 -0.425781 1.453125 -0.5 C 1.523438 -0.570312 1.5625 -0.691406 1.5625 -0.859375 L 1.5625 -1.84375 C 1.5625 -1.90625 1.582031 -1.957031 1.625 -2 C 1.664062 -2.050781 1.722656 -2.078125 1.796875 -2.078125 Z M 1.796875 -2.078125 "/></g></g></g><g fill="#000000" fill-opacity="1"><g transform="translate(21.021026, 18.967742)"><g><path d="M 1.328125 -2.109375 C 1.503906 -2.109375 1.664062 -2.0625 1.8125 -1.96875 C 1.957031 -1.882812 2.070312 -1.757812 2.15625 -1.59375 C 2.238281 -1.4375 2.28125 -1.25 2.28125 -1.03125 C 2.28125 -0.820312 2.238281 -0.632812 2.15625 -0.46875 C 2.070312 -0.3125 1.957031 -0.1875 1.8125 -0.09375 C 1.675781 -0.0078125 1.519531 0.03125 1.34375 0.03125 C 1.238281 0.03125 1.140625 0.015625 1.046875 -0.015625 C 0.960938 -0.046875 0.882812 -0.0859375 0.8125 -0.140625 C 0.738281 -0.191406 0.679688 -0.242188 0.640625 -0.296875 C 0.609375 -0.347656 0.59375 -0.394531 0.59375 -0.4375 L 0.71875 -0.484375 L 0.71875 -0.203125 C 0.71875 -0.128906 0.691406 -0.0703125 0.640625 -0.03125 C 0.597656 0.0078125 0.546875 0.03125 0.484375 0.03125 C 0.421875 0.03125 0.363281 0.0078125 0.3125 -0.03125 C 0.269531 -0.0703125 0.25 -0.128906 0.25 -0.203125 L 0.25 -2.625 C 0.25 -2.695312 0.269531 -2.753906 0.3125 -2.796875 C 0.363281 -2.847656 0.421875 -2.875 0.484375 -2.875 C 0.546875 -2.875 0.597656 -2.847656 0.640625 -2.796875 C 0.691406 -2.753906 0.71875 -2.695312 0.71875 -2.625 L 0.71875 -1.640625 L 0.65625 -1.6875 C 0.65625 -1.71875 0.671875 -1.753906 0.703125 -1.796875 C 0.742188 -1.847656 0.796875 -1.894531 0.859375 -1.9375 C 0.921875 -1.988281 0.988281 -2.03125 1.0625 -2.0625 C 1.144531 -2.09375 1.234375 -2.109375 1.328125 -2.109375 Z M 1.265625 -1.6875 C 1.148438 -1.6875 1.050781 -1.65625 0.96875 -1.59375 C 0.882812 -1.539062 0.816406 -1.460938 0.765625 -1.359375 C 0.722656 -1.265625 0.703125 -1.15625 0.703125 -1.03125 C 0.703125 -0.914062 0.722656 -0.804688 0.765625 -0.703125 C 0.816406 -0.609375 0.882812 -0.53125 0.96875 -0.46875 C 1.050781 -0.414062 1.148438 -0.390625 1.265625 -0.390625 C 1.378906 -0.390625 1.476562 -0.414062 1.5625 -0.46875 C 1.644531 -0.53125 1.707031 -0.609375 1.75 -0.703125 C 1.800781 -0.804688 1.828125 -0.914062 1.828125 -1.03125 C 1.828125 -1.15625 1.800781 -1.265625 1.75 -1.359375 C 1.707031 -1.460938 1.644531 -1.539062 1.5625 -1.59375 C 1.476562 -1.65625 1.378906 -1.6875 1.265625 -1.6875 Z M 1.265625 -1.6875 "/></g></g></g></svg>